<?xml version="1.0" encoding="utf-8"?>
<!-- Generator: Adobe Illustrator 21.0.2, SVG Export Plug-In . SVG Version: 6.00 Build 0)  -->
<svg version="1.1" id="CMYK_-_square" xmlns="http://www.w3.org/2000/svg" xmlns:xlink="http://www.w3.org/1999/xlink" x="0px"
	 y="0px" viewBox="0 0 16 16" style="enable-background:new 0 0 16 16;" xml:space="preserve">
<style type="text/css">
	.st0{fill:#0097A0;}
	.st1{fill:#5BC6CC;}
</style>
<title>NewRelic-logo-square-w</title>
<path class="st0" d="M15.2,6.4c-0.7-3.2-4.5-5-8.5-4.2s-6.7,4.1-6,7.3s4.5,5,8.5,4.2S15.9,9.6,15.2,6.4z M7.7,11.9c-2.2,0-4-1.8-4-4
	s1.8-4,4-4s4,1.8,4,4S10,11.9,7.7,11.9z"/>
<path class="st1" d="M8.7,2.9c-2.8,0-5.2,2.3-5.2,5.2s2.3,5.2,5.2,5.2s5.2-2.3,5.2-5.2S11.6,2.9,8.7,2.9z M7.7,11.9
	c-2.2,0-4-1.8-4-4s1.8-4,4-4s4,1.8,4,4S9.9,11.9,7.7,11.9z"/>
</svg>
